<svg width="69" height="34" viewBox="0 0 69 34" fill="none" xmlns="http://www.w3.org/2000/svg">
<g clip-path="url(#clip0_1_60)">
<path d="M0.643692 25.0715L7.62392 14.2101H1.47059C1.41844 13.8972 1.3961 13.5545 1.3961 13.1746C1.3961 12.8095 1.41844 12.4743 1.47059 12.1689H11.4306L11.5573 12.5041L4.52491 23.3879H11.1178C11.1699 23.7306 11.1922 24.0882 11.1922 24.4457C11.1922 24.7884 11.1699 25.1162 11.1178 25.4291H0.770334L0.643692 25.0715Z" fill="#4C4C4D"/>
<path d="M20.7873 16.6909C20.7873 15.6703 20.5266 14.9701 20.0126 14.5678C19.4985 14.1729 18.7461 13.9718 17.7628 13.9718C17.1594 13.9718 16.5932 14.0165 16.0718 14.1134C15.5428 14.2102 15.0363 14.3294 14.5297 14.4858C14.2019 13.9197 14.038 13.2343 14.038 12.4447C14.6265 12.2584 15.2672 12.1094 15.9749 12.0051C16.6826 11.9008 17.3605 11.8487 18.0161 11.8487C19.7369 11.8487 21.048 12.2435 21.9494 13.0257C22.8434 13.8079 23.2978 15.0669 23.2978 16.7877V25.0865C22.6944 25.2206 21.9643 25.3696 21.1002 25.5112C20.236 25.6602 19.357 25.7272 18.4631 25.7272C17.6213 25.7272 16.854 25.6527 16.176 25.4963C15.4981 25.3398 14.9171 25.094 14.4403 24.7439C13.9635 24.4012 13.5985 23.9617 13.3378 23.4253C13.077 22.8889 12.9504 22.2408 12.9504 21.4884C12.9504 20.7509 13.0994 20.0953 13.4048 19.5366C13.7028 18.9779 14.1125 18.5086 14.634 18.1436C15.148 17.7711 15.744 17.4954 16.4219 17.3167C17.0923 17.1379 17.8 17.041 18.545 17.041C19.0963 17.041 19.5507 17.0559 19.9008 17.0783C20.2509 17.1006 20.5489 17.1379 20.7948 17.1677V16.6909H20.7873ZM20.7873 19.2014C20.5266 19.1641 20.1988 19.1343 19.804 19.0971C19.4091 19.0599 19.0739 19.045 18.7983 19.045C17.7256 19.045 16.9136 19.2461 16.3548 19.6409C15.7961 20.0357 15.513 20.6392 15.513 21.4512C15.513 21.9652 15.6099 22.3749 15.7961 22.6654C15.9824 22.956 16.2207 23.1795 16.5038 23.3359C16.7869 23.4923 17.0998 23.5892 17.4499 23.619C17.7926 23.6562 18.1204 23.6711 18.4333 23.6711C18.8281 23.6711 19.2378 23.6488 19.6624 23.6041C20.0871 23.5594 20.4595 23.4998 20.7873 23.4104V19.2014Z" fill="#4C4C4D"/>
<path d="M26.0913 12.1694C26.2627 12.1322 26.4415 12.1098 26.6203 12.0949C26.799 12.08 26.9853 12.0726 27.179 12.0726C27.3503 12.0726 27.5291 12.08 27.7228 12.0949C27.909 12.1098 28.0953 12.1396 28.2666 12.1694C28.2815 12.2067 28.3038 12.311 28.3336 12.4898C28.356 12.6686 28.3858 12.8622 28.4081 13.0708C28.4305 13.2794 28.4603 13.4731 28.4826 13.6668C28.505 13.8605 28.5199 13.9797 28.5199 14.0318C28.6912 13.7562 28.8998 13.488 29.1382 13.2273C29.3766 12.9665 29.6671 12.7356 30.0023 12.527C30.3376 12.3184 30.7175 12.1545 31.1421 12.0353C31.5668 11.9162 32.0361 11.8566 32.5501 11.8566C33.3248 11.8566 34.0474 11.9832 34.7105 12.2439C35.3735 12.5047 35.9396 12.8995 36.4164 13.4433C36.8932 13.9871 37.2582 14.6799 37.5264 15.5143C37.7946 16.3486 37.9287 17.3394 37.9287 18.4792C37.9287 20.7588 37.3104 22.5392 36.0812 23.8205C34.8446 25.1019 33.1014 25.75 30.8441 25.75C30.4642 25.75 30.0768 25.7276 29.682 25.6755C29.2872 25.6233 28.9371 25.5563 28.6465 25.4669V31.5457C28.4379 31.583 28.2219 31.6053 27.9835 31.6202C27.7526 31.6351 27.5365 31.6426 27.3503 31.6426C27.1641 31.6426 26.948 31.6351 26.7171 31.6202C26.4862 31.6053 26.2701 31.5755 26.0839 31.5457V12.1694H26.0913ZM28.654 23.2618C28.9818 23.381 29.317 23.4704 29.6597 23.5226C30.0023 23.5747 30.4493 23.597 31.008 23.597C31.6263 23.597 32.2 23.5002 32.714 23.2991C33.228 23.0979 33.675 22.7925 34.0475 22.3828C34.4199 21.9656 34.7105 21.4441 34.9265 20.8184C35.1425 20.1926 35.2468 19.4402 35.2468 18.5835C35.2468 17.2053 34.9935 16.1102 34.487 15.2982C33.9804 14.4862 33.1461 14.084 31.9914 14.084C31.5593 14.084 31.1496 14.1585 30.7473 14.3149C30.3525 14.4713 29.9949 14.7023 29.6895 15.0152C29.3766 15.328 29.1307 15.7154 28.9371 16.1922C28.7434 16.669 28.654 17.2277 28.654 17.8832V23.2618Z" fill="#4C4C4D"/>
<path d="M41.1171 14.1803H39.4335C39.3962 14.0387 39.3739 13.8823 39.359 13.7035C39.3441 13.5247 39.3366 13.3459 39.3366 13.1746C39.3366 13.0032 39.3441 12.8244 39.359 12.6456C39.3739 12.4669 39.4037 12.303 39.4335 12.1689H43.6276V25.4365C43.4413 25.4738 43.2253 25.4961 42.9943 25.511C42.7634 25.5259 42.5474 25.5334 42.3611 25.5334C42.1898 25.5334 41.9886 25.5259 41.7503 25.511C41.5193 25.4961 41.3033 25.4663 41.1171 25.4365V14.1803Z" fill="#4C4C4D"/>
<path d="M49.1328 19.4325C49.17 20.8777 49.5425 21.943 50.2576 22.6135C50.9728 23.2839 52.0306 23.6192 53.4237 23.6192C54.6454 23.6192 55.815 23.4031 56.9175 22.9711C57.0591 23.2318 57.1708 23.5447 57.2528 23.9171C57.3422 24.2896 57.3869 24.6546 57.4092 25.0197C56.843 25.2581 56.2173 25.4443 55.5319 25.5635C54.854 25.6827 54.0942 25.7423 53.2673 25.7423C52.0604 25.7423 51.0249 25.5709 50.1608 25.2357C49.2966 24.9005 48.5889 24.4237 48.0302 23.8129C47.4715 23.202 47.0618 22.4794 46.8011 21.6376C46.5403 20.8032 46.4137 19.8869 46.4137 18.8813C46.4137 17.8979 46.5403 16.9816 46.7862 16.1249C47.032 15.2682 47.4194 14.5307 47.9334 13.8975C48.4474 13.2717 49.103 12.7652 49.8852 12.4001C50.6674 12.0277 51.5986 11.8414 52.6638 11.8414C53.5801 11.8414 54.3772 11.9979 55.07 12.3107C55.7628 12.6236 56.3365 13.0483 56.8058 13.5921C57.2677 14.1359 57.6252 14.784 57.8636 15.529C58.102 16.2814 58.2286 17.0934 58.2286 17.9724C58.2286 18.2108 58.2212 18.4715 58.1989 18.7323C58.184 19.0004 58.1616 19.2314 58.1467 19.4176H49.1328V19.4325ZM55.7033 17.518C55.7033 17.0338 55.6362 16.5719 55.5096 16.1324C55.3829 15.6928 55.1892 15.3129 54.9434 14.9851C54.6901 14.6574 54.3772 14.3966 53.9899 14.1955C53.6025 13.9943 53.1406 13.8975 52.6042 13.8975C51.5539 13.8975 50.7493 14.2178 50.1831 14.851C49.6244 15.4917 49.2817 16.3782 49.1626 17.518H55.7033Z" fill="#4C4C4D"/>
<path d="M61.0595 12.1689C61.2458 12.1316 61.432 12.1093 61.6033 12.0944C61.7747 12.0795 61.9535 12.072 62.1472 12.072C62.3334 12.072 62.5271 12.0795 62.7133 12.0944C62.8996 12.1093 63.0784 12.1391 63.2273 12.1689C63.2795 12.4296 63.3316 12.7648 63.3838 13.1895C63.4359 13.6141 63.4583 13.9717 63.4583 14.2622C63.8233 13.6737 64.3001 13.1671 64.896 12.735C65.492 12.303 66.2519 12.0869 67.1831 12.0869C67.3246 12.0869 67.4661 12.0944 67.6077 12.1018C67.7567 12.1093 67.8759 12.1242 67.9802 12.1391C68.0174 12.2955 68.0398 12.4594 68.0547 12.6307C68.0696 12.8021 68.077 12.9809 68.077 13.1746C68.077 13.3832 68.0621 13.5992 68.0398 13.8227C68.0174 14.0462 67.9802 14.2622 67.9504 14.4708C67.8088 14.4335 67.6673 14.4186 67.5257 14.4186C67.3767 14.4186 67.265 14.4186 67.1756 14.4186C66.7137 14.4186 66.2668 14.4857 65.8421 14.6123C65.4175 14.739 65.0376 14.9699 64.7024 15.2977C64.3671 15.6255 64.0989 16.0724 63.8978 16.6461C63.6967 17.2122 63.5998 17.9497 63.5998 18.8437V25.4365C63.4136 25.4738 63.1975 25.4961 62.9666 25.511C62.7357 25.5259 62.5196 25.5334 62.3334 25.5334C62.1472 25.5334 61.9311 25.5259 61.7002 25.511C61.4693 25.4961 61.2458 25.4663 61.0372 25.4365V12.1689H61.0595Z" fill="#4C4C4D"/>
<path d="M46.0635 4.36204H43.5604L45.3334 2.58905C45.1919 2.39536 45.0354 2.20912 44.8715 2.03778C44.7002 1.86644 44.5214 1.71 44.3203 1.57591L42.5473 3.3489V0.845851C42.3163 0.808604 42.0779 0.786255 41.8321 0.786255H41.8247C41.5788 0.786255 41.3404 0.808604 41.1095 0.845851V3.3489L39.3365 1.57591C39.1428 1.71745 38.9566 1.87389 38.7852 2.03778C38.6139 2.20912 38.4649 2.38791 38.3234 2.58905L40.1038 4.36204H37.6008C37.6008 4.36204 37.5412 4.83136 37.5412 5.0772C37.5412 5.32303 37.5635 5.56142 37.6008 5.79235H40.1038L38.3308 7.56534C38.6065 7.95272 38.9491 8.2954 39.344 8.57848L41.117 6.80549V9.30854C41.3479 9.34579 41.5863 9.36814 41.8321 9.36814H41.8396C42.0854 9.36814 42.3238 9.34579 42.5547 9.30854V6.80549L44.3277 8.57848C44.5214 8.43694 44.7076 8.2805 44.879 8.11661C45.0503 7.94527 45.2068 7.76648 45.3408 7.56534L43.5679 5.79235H46.0709C46.1081 5.56142 46.1305 5.32303 46.1305 5.0772V5.06975C46.123 4.83136 46.1082 4.59297 46.0635 4.36204ZM42.9048 5.08464C42.9048 5.40498 42.8452 5.71041 42.741 5.99349C42.4579 6.09778 42.1524 6.15738 41.8321 6.15738C41.5118 6.15738 41.2063 6.09778 40.9233 5.99349C40.819 5.71041 40.7594 5.40498 40.7594 5.08464V5.0772C40.7594 4.75686 40.819 4.45143 40.9233 4.16835C41.2063 4.06406 41.5118 4.00446 41.8321 4.00446C42.1524 4.00446 42.4579 4.06406 42.741 4.16835C42.8452 4.45143 42.9048 4.75686 42.9048 5.08464Z" fill="#4C4C4D"/>
</g>
<defs>
<clipPath id="clip0_1_60">
<rect width="68" height="34" fill="white" transform="translate(0.642853)"/>
</clipPath>
</defs>
</svg>
