<svg width="100" height="34" viewBox="0 0 100 34" fill="none" xmlns="http://www.w3.org/2000/svg">
<g clip-path="url(#clip0_1_64)">
<path d="M15.2741 2.18079C7.05885 2.18079 0.398786 8.84067 0.398786 17.0559C0.398786 25.2714 7.05885 31.9308 15.2741 31.9308C23.4902 31.9308 30.1495 25.2714 30.1495 17.0559C30.1495 8.8412 23.4902 2.1815 15.2739 2.1815L15.2741 2.18079V2.18079ZM22.0958 23.6349C21.8293 24.0719 21.2574 24.2105 20.8204 23.9422C17.3278 21.8089 12.9311 21.3257 7.75321 22.5088C7.25424 22.6224 6.75688 22.3098 6.6432 21.8107C6.52898 21.3115 6.84036 20.8142 7.34057 20.7005C13.007 19.4059 17.8675 19.9633 21.7885 22.3595C22.2254 22.6278 22.364 23.198 22.0958 23.6349V23.6349ZM23.9165 19.5846C23.5808 20.1303 22.8667 20.3026 22.3214 19.9669C18.3229 17.5092 12.2279 16.7974 7.49848 18.233C6.88513 18.4183 6.23731 18.0726 6.05115 17.4603C5.86642 16.847 6.21226 16.2004 6.82456 16.0139C12.2268 14.3747 18.9428 15.1687 23.5346 17.9904C24.0799 18.3261 24.2522 19.0402 23.9165 19.5848V19.5846ZM24.0728 15.367C19.2786 12.5194 11.3687 12.2576 6.79134 13.6468C6.05631 13.8697 5.279 13.4548 5.05625 12.7197C4.8335 11.9844 5.24809 11.2076 5.98365 10.9841C11.2381 9.38901 19.9731 9.6972 25.4928 12.9739C26.1553 13.3663 26.372 14.2202 25.9795 14.8804C25.5887 15.5416 24.7325 15.7595 24.0735 15.367H24.0728ZM40.8695 15.9126C38.301 15.3002 37.8445 14.8703 37.8445 13.9671C37.8445 13.1137 38.6473 12.5395 39.8428 12.5395C41.0009 12.5395 42.1484 12.9755 43.3528 13.8733C43.3883 13.9005 43.4345 13.9113 43.4789 13.9042C43.5251 13.8974 43.5641 13.8727 43.5908 13.8356L44.8449 12.0678C44.8964 11.995 44.8822 11.8947 44.8129 11.8391C43.3794 10.6893 41.7665 10.1303 39.8801 10.1303C37.1073 10.1303 35.1693 11.7945 35.1693 14.1756C35.1693 16.729 36.8408 17.6332 39.7291 18.3311C42.1857 18.8972 42.6014 19.3715 42.6014 20.2191C42.6014 21.1588 41.763 21.7432 40.413 21.7432C38.9138 21.7432 37.6899 21.2369 36.3222 20.0539C36.2884 20.0237 36.2422 20.0113 36.1996 20.0131C36.1534 20.0166 36.1126 20.0379 36.0841 20.0717L34.6773 21.745C34.6187 21.816 34.6258 21.919 34.6933 21.9794C36.2849 23.4005 38.2423 24.1501 40.3561 24.1501C43.3439 24.1501 45.2747 22.5176 45.2747 19.99C45.2801 17.8572 44.0029 16.6759 40.8748 15.915L40.8695 15.9126V15.9126ZM52.0353 13.3796C50.7404 13.3796 49.6782 13.8898 48.8007 14.9352V13.7585C48.8007 13.6656 48.7261 13.59 48.6337 13.59H46.3334C46.241 13.59 46.1664 13.6656 46.1664 13.7585V26.8323C46.1664 26.9246 46.241 27.001 46.3334 27.001H48.6337C48.7261 27.001 48.8007 26.9246 48.8007 26.8323V22.7059C49.6782 23.6882 50.7404 24.1696 52.0353 24.1696C54.4422 24.1696 56.8793 22.3169 56.8793 18.7752C56.8829 15.2327 54.4458 13.3795 52.0371 13.3795L52.0353 13.3796ZM54.2042 18.7752C54.2042 20.5779 53.094 21.8373 51.5024 21.8373C49.9304 21.8373 48.7438 20.5211 48.7438 18.7752C48.7438 17.0291 49.9304 15.7132 51.5024 15.7132C53.0674 15.713 54.2042 17.0005 54.2042 18.775V18.7752ZM63.123 13.3796C60.0234 13.3796 57.5952 15.7663 57.5952 18.8137C57.5952 21.8284 60.0074 24.1891 63.0857 24.1891C66.196 24.1891 68.6313 21.8107 68.6313 18.7752C68.6313 15.7499 66.212 13.38 63.123 13.38V13.3796V13.3796ZM63.123 21.8551C61.4746 21.8551 60.2312 20.53 60.2312 18.7743C60.2312 17.0106 61.432 15.7308 63.0857 15.7308C64.7448 15.7308 65.9953 17.0553 65.9953 18.8128C65.9953 20.5761 64.7874 21.8551 63.123 21.8551V21.8551ZM75.2498 13.59H72.7186V11.0026C72.7186 10.9099 72.644 10.8342 72.5516 10.8342H70.2513C70.1589 10.8342 70.0825 10.9099 70.0825 11.0026V13.59H68.9777C68.8853 13.59 68.8107 13.6656 68.8107 13.7585V15.735C68.8107 15.8277 68.8853 15.9036 68.9777 15.9036H70.0825V21.0184C70.0825 23.0843 71.111 24.1323 73.1413 24.1323C73.9655 24.1323 74.6494 23.9618 75.2942 23.5959C75.3475 23.5674 75.3795 23.5106 75.3795 23.4502V21.5673C75.3795 21.5105 75.3493 21.4554 75.2995 21.4252C75.2498 21.3932 75.1876 21.3915 75.1361 21.4181C74.6938 21.6401 74.2657 21.7432 73.7861 21.7432C73.049 21.7432 72.7186 21.4075 72.7186 20.6579V15.9045H75.2498C75.3422 15.9045 75.4168 15.8288 75.4168 15.7359V13.7596C75.4203 13.6667 75.3457 13.591 75.2516 13.591L75.2498 13.59V13.59ZM84.0674 13.6001V13.2823C84.0674 12.3474 84.4262 11.9305 85.2291 11.9305C85.7087 11.9305 86.0941 12.0257 86.5258 12.1696C86.5791 12.1863 86.6341 12.178 86.6768 12.1462C86.7212 12.1144 86.746 12.0634 86.746 12.0094V10.0715C86.746 9.99739 86.6998 9.93185 86.627 9.91C86.1723 9.77447 85.5897 9.63538 84.7157 9.63538C82.593 9.63538 81.4686 10.8315 81.4686 13.0933V13.58H80.3638C80.2714 13.58 80.195 13.6557 80.195 13.7484V15.735C80.195 15.8277 80.2714 15.9036 80.3638 15.9036H81.4686V23.7912C81.4686 23.8854 81.545 23.96 81.6374 23.96H83.9359C84.0301 23.96 84.1047 23.8854 84.1047 23.7912V15.9041H86.2522L89.5419 23.7912C89.1689 24.619 88.8012 24.7842 88.3003 24.7842C87.8953 24.7842 87.4672 24.6634 87.032 24.4236C86.9912 24.4023 86.9414 24.3987 86.8988 24.4112C86.8544 24.4272 86.8171 24.4591 86.7993 24.5018L86.0195 26.2123C85.9822 26.2941 86.0142 26.3882 86.0923 26.4308C86.9059 26.8714 87.6395 27.0596 88.5472 27.0596C90.2453 27.0596 91.185 26.2674 92.011 24.1394L96.0006 13.8303C96.0219 13.7784 96.0148 13.7198 95.9828 13.6738C95.9526 13.6281 95.9011 13.6006 95.846 13.6006H93.4516C93.3787 13.6006 93.3148 13.6463 93.2917 13.7136L90.8386 20.7182L88.1529 13.709C88.128 13.6438 88.0658 13.6006 87.9965 13.6006H84.0674V13.6001V13.6001ZM78.9552 13.59H76.6549C76.5625 13.59 76.4861 13.6656 76.4861 13.7585V23.7912C76.4861 23.8854 76.5625 23.96 76.6549 23.96H78.9552C79.0475 23.96 79.1239 23.8854 79.1239 23.7912V13.7592C79.1239 13.6663 79.0493 13.5907 78.9552 13.5907V13.59ZM77.8183 9.02149C76.9071 9.02149 76.1682 9.75901 76.1682 10.6701C76.1682 11.5817 76.9071 12.3201 77.8183 12.3201C78.7296 12.3201 79.4667 11.5817 79.4667 10.6701C79.4667 9.75919 78.7278 9.02149 77.8183 9.02149ZM97.9651 16.8159C97.0557 16.8159 96.3469 16.0849 96.3469 15.1973C96.3469 14.3097 97.0646 13.5704 97.974 13.5704C98.8835 13.5704 99.5922 14.3012 99.5922 15.1881C99.5922 16.0757 98.8746 16.8159 97.9651 16.8159ZM97.974 13.7314C97.1445 13.7314 96.5175 14.3904 96.5175 15.1973C96.5175 16.0039 97.1409 16.6541 97.9651 16.6541C98.7947 16.6541 99.4217 15.9956 99.4217 15.1881C99.4217 14.3815 98.7982 13.7314 97.974 13.7314V13.7314ZM98.3328 15.3545L98.7911 15.9954H98.4039L97.9918 15.4075H97.6383V15.9954H97.315V14.2966H98.0717C98.4678 14.2966 98.7272 14.4985 98.7272 14.8385C98.729 15.117 98.5673 15.2872 98.3346 15.3545H98.3328ZM98.0593 14.5881H97.6383V15.1254H98.0593C98.2689 15.1254 98.395 15.0225 98.395 14.8565C98.395 14.6817 98.2689 14.5881 98.0593 14.5881V14.5881Z" fill="#4C4C4D"/>
</g>
<defs>
<clipPath id="clip0_1_64">
<rect width="99.1667" height="34" fill="white" transform="translate(0.345238)"/>
</clipPath>
</defs>
</svg>
