<svg width="95" height="34" viewBox="0 0 95 34" fill="none" xmlns="http://www.w3.org/2000/svg">
<g clip-path="url(#clip0_1_77)">
<path d="M11.0485 4.25H0.682007V29.0417L11.0485 4.25Z" fill="#4C4C4D"/>
<path d="M18.3421 4.25H28.695V29.0417L18.3421 4.25Z" fill="#4C4C4D"/>
<path d="M14.695 13.3875L21.2931 29.0419H16.9642L14.9922 24.0579H10.1635L14.695 13.3875Z" fill="#4C4C4D"/>
<path d="M45.6075 20.0147L46.8299 23.5197C46.8704 23.6074 46.9312 23.648 47.0392 23.648H49.3894C49.5177 23.648 49.538 23.5872 49.5177 23.4589L44.662 9.97237C44.6418 9.86432 44.6215 9.84406 44.5135 9.84406H41.596C41.515 9.84406 41.4677 9.90484 41.4677 9.99263C41.4272 10.7017 41.3664 10.9178 41.2786 11.1272L36.9497 23.4386C36.9294 23.5872 36.9767 23.648 37.0982 23.648H39.1985C39.3269 23.648 39.3876 23.6074 39.4349 23.4791L40.5897 20.0147H45.6075ZM41.2583 17.7253C41.8931 15.8073 42.7306 13.3491 43.0682 11.9444H43.0885C43.5072 13.4166 44.4932 16.3341 44.9389 17.7253H41.2583Z" fill="#4C4C4D"/>
<path d="M55.7601 23.8567C57.023 23.8567 58.3669 23.6271 59.7311 23.0395C59.8391 22.999 59.8594 22.9517 59.8594 22.8504C59.8189 22.4723 59.7716 21.9252 59.7716 21.5065V8.81016C59.7716 8.72912 59.7716 8.6886 59.6703 8.6886H57.3809C57.2931 8.6886 57.2526 8.72912 57.2526 8.83717V13.1391C56.8947 13.0986 56.6448 13.0783 56.3476 13.0783C52.6535 13.0783 50.3844 15.5163 50.3844 18.562C50.3844 22.0941 52.7143 23.8567 55.7601 23.8567V23.8567ZM57.2526 21.5065C56.8744 21.6281 56.4557 21.6754 56.0302 21.6754C54.3554 21.6754 52.9845 20.7299 52.9845 18.4337C52.9845 16.401 54.3959 15.1989 56.2666 15.1989C56.6448 15.1989 56.9757 15.2394 57.2526 15.3474V21.5065Z" fill="#4C4C4D"/>
<path d="M67.1615 13.0794C64.0077 13.0794 62.056 15.4971 62.056 18.4821C62.056 21.1497 63.6092 23.8578 67.1143 23.8578C70.079 23.8578 72.159 21.6764 72.159 18.4145C72.159 15.5376 70.3964 13.0794 67.1615 13.0794ZM67.0332 15.1999C68.8161 15.1999 69.5725 16.733 69.5725 18.4821C69.5725 20.6432 68.4582 21.717 67.1615 21.717C65.561 21.717 64.6155 20.373 64.6155 18.4348C64.6155 16.4426 65.6218 15.1999 67.0332 15.1999V15.1999Z" fill="#4C4C4D"/>
<path d="M74.5269 8.6886C74.4391 8.6886 74.3784 8.72912 74.3784 8.83717V23.2084C74.3784 23.2692 74.4391 23.3772 74.5269 23.3975C75.5332 23.7081 76.5867 23.8567 77.674 23.8567C80.7873 23.8567 83.8128 21.9252 83.8128 18.0353C83.8128 15.2191 81.8814 13.0783 78.8558 13.0783C78.1602 13.0783 77.5119 13.1864 76.9446 13.3754L76.9176 8.85743C76.9176 8.70886 76.8771 8.6886 76.7285 8.6886H74.5269ZM81.2263 18.2919C81.2263 20.6218 79.6325 21.7159 77.9104 21.7159C77.5524 21.7159 77.235 21.6956 76.9446 21.6078V15.4757C77.2756 15.3474 77.674 15.2394 78.4101 15.2394C80.0714 15.2394 81.2263 16.2929 81.2263 18.2919Z" fill="#4C4C4D"/>
<path d="M92.3569 19.0494C93.3834 19.0494 94.2276 19.0291 94.518 18.9616C94.626 18.9413 94.6666 18.9008 94.6868 18.813C94.7476 18.5834 94.7746 18.1039 94.7746 17.5163C94.7746 15.5173 93.5725 13.0794 90.466 13.0794C87.2919 13.0794 85.5292 15.6659 85.5292 18.5834C85.5292 21.1699 86.8934 23.8578 90.7158 23.8578C92.1475 23.8578 93.0728 23.6282 93.8697 23.25C93.9507 23.2094 93.9912 23.1419 93.9912 23.0204V21.2712C93.9912 21.1699 93.9304 21.1497 93.8697 21.1902C93.0728 21.5279 92.2083 21.6967 91.2629 21.6967C89.122 21.6967 88.1495 20.5149 88.0888 19.0494H92.3569ZM88.0888 17.2395C88.2576 16.2129 88.9059 15.0986 90.3579 15.0986C91.9584 15.0986 92.3772 16.4426 92.3772 17.0504C92.3772 17.0706 92.3772 17.1584 92.3772 17.2192C92.2894 17.2395 92.0192 17.2395 91.2223 17.2395H88.0888Z" fill="#4C4C4D"/>
</g>
<defs>
<clipPath id="clip0_1_77">
<rect width="94.2083" height="34" fill="white" transform="translate(0.68158)"/>
</clipPath>
</defs>
</svg>
